<?xml version="1.0" encoding="UTF-8"?>
<svg width="20px" height="20px" version="1.1" viewBox="0 0 700 700" xmlns="http://www.w3.org/2000/svg" xmlns:xlink="http://www.w3.org/1999/xlink">
 <g>
  <path d="m303.52 18.48c-118.16 0-214.48 93.52-214.48 209.44s95.762 209.44 214.48 209.44c33.039 0 64.398-7.2812 92.398-20.719 14-6.7188 30.801-3.3594 42 7.2812l108.64 106.4c14.559 14 37.52 14 52.078 0 15.121-14.559 15.121-38.641 0-53.762l-102.48-99.684c-12.32-11.762-15.121-30.801-6.1602-45.359 17.922-30.238 28-65.52 28-103.04 0-116.48-95.762-210-214.48-210zm0 49.281c90.719 0 164.08 71.68 164.08 160.16 0 88.477-73.363 160.72-164.08 160.72s-163.52-71.68-163.52-160.72c0-89.043 72.801-160.16 163.52-160.16z"/>
  <use x="70" y="644" xlink:href="#u"/>
  <use x="90.550781" y="644" xlink:href="#c"/>
  <use x="104.359375" y="644" xlink:href="#a"/>
  <use x="123.347656" y="644" xlink:href="#j"/>
  <use x="142.242188" y="644" xlink:href="#b"/>
  <use x="155.628906" y="644" xlink:href="#a"/>
  <use x="174.617188" y="644" xlink:href="#i"/>
  <use x="204.410156" y="644" xlink:href="#h"/>
  <use x="224.453125" y="644" xlink:href="#g"/>
  <use x="252.453125" y="644" xlink:href="#f"/>
  <use x="274.148438" y="644" xlink:href="#a"/>
  <use x="293.140625" y="644" xlink:href="#t"/>
  <use x="311.390625" y="644" xlink:href="#s"/>
  <use x="320.988281" y="644" xlink:href="#e"/>
  <use x="70" y="672" xlink:href="#r"/>
  <use x="82.183594" y="672" xlink:href="#c"/>
  <use x="95.992188" y="672" xlink:href="#d"/>
  <use x="115.226562" y="672" xlink:href="#q"/>
  <use x="154.152344" y="672" xlink:href="#b"/>
  <use x="167.535156" y="672" xlink:href="#p"/>
  <use x="187.46875" y="672" xlink:href="#a"/>
  <use x="216.207031" y="672" xlink:href="#o"/>
  <use x="239.640625" y="672" xlink:href="#d"/>
  <use x="258.878906" y="672" xlink:href="#n"/>
  <use x="278.8125" y="672" xlink:href="#e"/>
  <use x="308.492188" y="672" xlink:href="#m"/>
  <use x="329.015625" y="672" xlink:href="#c"/>
  <use x="342.820312" y="672" xlink:href="#d"/>
  <use x="362.058594" y="672" xlink:href="#l"/>
  <use x="371.65625" y="672" xlink:href="#a"/>
  <use x="390.648438" y="672" xlink:href="#k"/>
  <use x="407.242188" y="672" xlink:href="#b"/>
 </g>
</svg>
